<?xml version="1.0" encoding="UTF-8"?>
<svg version="1.1" xmlns="http://www.w3.org/2000/svg" width="934" height="984">
<path d="M0 0 C308.22 0 616.44 0 934 0 C934 324.72 934 649.44 934 984 C625.78 984 317.56 984 0 984 C0 659.28 0 334.56 0 0 Z " fill="#545454" transform="translate(0,0)"/>
<path d="M0 0 C179.19 0 358.38 0 543 0 C543 285.78 543 571.56 543 866 C209 866 209 866 206 864 C205.12109375 861.27734375 205.12109375 861.27734375 204.4375 857.9375 C204.18742188 856.75542969 203.93734375 855.57335937 203.6796875 854.35546875 C203.34324219 852.69451172 203.34324219 852.69451172 203 851 C202.69151825 849.58245293 202.37956171 848.1656527 202.0625 846.75 C201.82660156 845.68845703 201.82660156 845.68845703 201.5859375 844.60546875 C199.39805215 834.87667189 197.10926162 825.21613499 194.375 815.625 C192.75281055 809.9345972 191.34157749 804.31836514 190.45703125 798.45703125 C190.01041894 795.84133554 190.01041894 795.84133554 189.0625 792.71875 C187.92380157 788.7333055 187.04559427 784.73983563 186.1875 780.6875 C184.61680382 773.40794194 182.76291515 766.24696387 180.6628418 759.10229492 C179.39966163 754.7393603 178.63357722 750.50715505 178 746 C177.35064558 743.66178963 176.68308401 741.32858007 176 739 C175.35400458 736.23807532 174.77513009 733.46235177 174.1875 730.6875 C172.62883859 723.46800239 170.75656517 716.38299479 168.72216797 709.28466797 C167.33321313 704.37717234 166.21905706 699.50649896 165.45703125 694.45703125 C165.01041894 691.84133554 165.01041894 691.84133554 164.0625 688.71875 C162.92379969 684.73329892 162.04566035 680.73982446 161.1875 676.6875 C159.62883859 669.46800239 157.75656517 662.38299479 155.72216797 655.28466797 C154.33321313 650.37717234 153.21905706 645.50649896 152.45703125 640.45703125 C152.01041894 637.84133554 152.01041894 637.84133554 151.0625 634.71875 C149.92380157 630.7333055 149.04559427 626.73983563 148.1875 622.6875 C146.61680382 615.40794194 144.76291515 608.24696387 142.6628418 601.10229492 C141.39966163 596.7393603 140.63357722 592.50715505 140 588 C139.35064558 585.66178963 138.68308401 583.32858007 138 581 C137.35400458 578.23807532 136.77513009 575.46235177 136.1875 572.6875 C134.62883859 565.46800239 132.75656517 558.38299479 130.72216797 551.28466797 C129.33321313 546.37717234 128.21905706 541.50649896 127.45703125 536.45703125 C127.01041894 533.84133554 127.01041894 533.84133554 126.0625 530.71875 C124.92380157 526.7333055 124.04559427 522.73983563 123.1875 518.6875 C121.61680382 511.40794194 119.76291515 504.24696387 117.6628418 497.10229492 C116.39966163 492.7393603 115.63357722 488.50715505 115 484 C114.35064558 481.66178963 113.68308401 479.32858007 113 477 C112.35400458 474.23807532 111.77513009 471.46235177 111.1875 468.6875 C109.62883859 461.46800239 107.75656517 454.38299479 105.72216797 447.28466797 C104.33321313 442.37717234 103.21905706 437.50649896 102.45703125 432.45703125 C102.01041894 429.84133554 102.01041894 429.84133554 101.0625 426.71875 C99.92380157 422.7333055 99.04559427 418.73983563 98.1875 414.6875 C96.61680382 407.40794194 94.76291515 400.24696387 92.6628418 393.10229492 C91.39966163 388.7393603 90.63357722 384.50715505 90 380 C89.35064558 377.66178963 88.68308401 375.32858007 88 373 C87.35400458 370.23807532 86.77513009 367.46235177 86.1875 364.6875 C84.62883859 357.46800239 82.75656517 350.38299479 80.72216797 343.28466797 C79.33321313 338.37717234 78.21905706 333.50649896 77.45703125 328.45703125 C77.01041894 325.84133554 77.01041894 325.84133554 76.0625 322.71875 C74.92380157 318.7333055 74.04559427 314.73983563 73.1875 310.6875 C71.61680382 303.40794194 69.76291515 296.24696387 67.6628418 289.10229492 C66.39966163 284.7393603 65.63357722 280.50715505 65 276 C64.35064558 273.66178963 63.68308401 271.32858007 63 269 C62.35400458 266.23807532 61.77513009 263.46235177 61.1875 260.6875 C59.62883859 253.46800239 57.75656517 246.38299479 55.72216797 239.28466797 C54.33321313 234.37717234 53.21905706 229.50649896 52.45703125 224.45703125 C52.01041894 221.84133554 52.01041894 221.84133554 51.0625 218.71875 C49.92379969 214.73329892 49.04566035 210.73982446 48.1875 206.6875 C46.62883859 199.46800239 44.75656517 192.38299479 42.72216797 185.28466797 C41.33321313 180.37717234 40.21905706 175.50649896 39.45703125 170.45703125 C39.01041894 167.84133554 39.01041894 167.84133554 38.0625 164.71875 C36.92380157 160.7333055 36.04559427 156.73983563 35.1875 152.6875 C33.61680382 145.40794194 31.76291515 138.24696387 29.6628418 131.10229492 C28.39966163 126.7393603 27.63357722 122.50715505 27 118 C26.35064558 115.66178963 25.68308401 113.32858007 25 111 C24.35400458 108.23807532 23.77513009 105.46235177 23.1875 102.6875 C21.62883859 95.46800239 19.75656517 88.38299479 17.72216797 81.28466797 C16.33321313 76.37717234 15.21905706 71.50649896 14.45703125 66.45703125 C14.01041894 63.84133554 14.01041894 63.84133554 13.0625 60.71875 C11.92380157 56.7333055 11.04559427 52.73983563 10.1875 48.6875 C8.61680382 41.40794194 6.76291515 34.24696387 4.6628418 27.10229492 C3.401017 22.74404168 2.58797462 18.51146879 2 14 C1.35466922 11.66067594 0.68939809 9.32671854 0 7 C-1.14925373 2.29850746 -1.14925373 2.29850746 0 0 Z " fill="#4C4C4C" transform="translate(391,0)"/>
<path d="M0 0 C108.57 0 217.14 0 329 0 C330.1458941 33.23092877 330.1458941 33.23092877 330.5 46.5625 C330.54089962 48.06876943 330.58191914 49.57503561 330.62304688 51.08129883 C330.70751197 54.1788609 330.79148955 57.27643549 330.875 60.37402344 C331.08019337 67.97860195 331.28963872 75.5830629 331.5 83.1875 C331.5309375 84.30804779 331.5309375 84.30804779 331.5625 85.45123291 C331.87604127 96.78985272 332.2130376 108.12761574 332.5625 119.46517944 C332.92536065 131.26045389 333.24919049 143.0565565 333.5625 154.85324097 C333.85198647 165.73626438 334.16356188 176.6183294 334.5 187.5 C334.86068794 199.16600058 335.19005029 210.83254261 335.5 222.5 C335.81189898 234.22986872 336.14044091 245.95899148 336.5 257.6875 C336.5309375 258.69737976 336.5309375 258.69737976 336.5625 259.72766113 C336.64573396 262.44300639 336.72905767 265.15834888 336.8125 267.87368774 C337.04657925 275.49897936 337.27481983 283.12444067 337.5 290.75 C337.5309375 291.79719208 337.5309375 291.79719208 337.5625 292.86553955 C337.91647693 304.87966881 338.24254787 316.89446869 338.5625 328.9095459 C338.87023497 340.44780397 339.20585382 351.98491698 339.5625 363.52175903 C339.92590755 375.29825761 340.24972477 387.07557347 340.5625 398.85351562 C340.85198779 409.7364474 341.16356471 420.61842093 341.5 431.5 C341.88494048 443.95041872 342.23182522 456.40154356 342.5625 468.85351562 C342.85198779 479.7364474 343.16356471 490.61842093 343.5 501.5 C343.88494048 513.95041872 344.23182522 526.40154356 344.5625 538.85351562 C344.85198779 549.7364474 345.16356471 560.61842093 345.5 571.5 C345.88463934 583.94067877 346.23231515 596.38204405 346.56149292 608.8243103 C346.78722871 617.34822408 347.02159328 625.87169368 347.28515625 634.39453125 C347.32018753 635.5293544 347.32018753 635.5293544 347.35592651 636.68710327 C347.46705116 640.27323971 347.57996818 643.85930937 347.6953125 647.4453125 C348.24034041 664.79829794 348.24034041 664.79829794 347 671 C339.41 671.33 331.82 671.66 324 672 C323.67 672.66 323.34 673.32 323 674 C216.41 674 109.82 674 0 674 C0 451.58 0 229.16 0 0 Z " fill="#626262" transform="translate(0,0)"/>
<path d="M0 0 C8.25 0 16.5 0 25 0 C25 1.65 25 3.3 25 5 C17.41 5.33 9.82 5.66 2 6 C1.67 6.66 1.34 7.32 1 8 C-105.59 8 -212.18 8 -322 8 C-322 6.02 -322 4.04 -322 2 C-215.74 2 -109.48 2 0 2 C0 1.34 0 0.68 0 0 Z " fill="#747474" transform="translate(322,666)"/>
</svg>
